<svg width="80" height="20" viewBox="0 0 80 20" fill="none" xmlns="http://www.w3.org/2000/svg">
<path d="M3.57406 14.0201C3.57406 16.0802 4.94743 17.1388 7.00747 17.1388H9.55392C11.614 17.1388 12.9587 16.0802 12.9587 14.0201V13.4193C12.9587 13.1618 13.1304 12.9901 13.3879 12.9901H15.7055C15.963 12.9901 16.1346 13.1618 16.1346 13.4193V14.4493C16.1346 17.8827 13.9029 20 9.84004 20H6.69275C2.65849 20 0.398157 17.8827 0.398157 14.4493V5.80856C0.398157 2.37515 2.65849 0.257881 6.69275 0.257881H9.84004C13.9029 0.257881 16.1346 2.37515 16.1346 5.80856V6.83859C16.1346 7.09609 15.963 7.26776 15.7055 7.26776H13.3879C13.1304 7.26776 12.9587 7.09609 12.9587 6.83859V6.23774C12.9587 4.17769 11.614 3.11906 9.55392 3.11906H7.00747C4.94743 3.11906 3.57406 4.17769 3.57406 6.23774V14.0201ZM22.2075 0.257881C22.465 0.257881 22.6367 0.429552 22.6367 0.687058V17.1388H31.306C31.5635 17.1388 31.7352 17.3105 31.7352 17.568V19.5708C31.7352 19.8283 31.5635 20 31.306 20H19.8613C19.6038 20 19.4321 19.8283 19.4321 19.5708V0.687058C19.4321 0.429552 19.6038 0.257881 19.8613 0.257881H22.2075ZM43.4759 0.257881C47.1954 0.257881 49.2554 2.60405 49.2554 6.20913V19.5708C49.2554 19.8283 49.0838 20 48.8263 20H46.5087C46.2512 20 46.0795 19.8283 46.0795 19.5708V14.1632H37.496V19.5708C37.496 19.8283 37.3243 20 37.0668 20H34.7493C34.4918 20 34.3201 19.8283 34.3201 19.5708V6.20913C34.3201 2.60405 36.3515 0.257881 40.0711 0.257881H43.4759ZM37.496 11.302H46.0795V5.8944C46.0795 4.26353 45.1353 3.11906 43.5045 3.11906H40.0424C38.4116 3.11906 37.496 4.26353 37.496 5.8944V11.302ZM55.5134 0.257881C55.7709 0.257881 55.9425 0.429552 55.9425 0.687058V19.5708C55.9425 19.8283 55.7709 20 55.5134 20H53.1958C52.9383 20 52.7666 19.8283 52.7666 19.5708V0.687058C52.7666 0.429552 52.9383 0.257881 53.1958 0.257881H55.5134ZM63.5287 0.257881C63.7576 0.257881 63.9292 0.372328 64.0151 0.572611L69.5658 12.2462C69.623 12.3893 69.7947 12.3893 69.8519 12.2462L75.4312 0.572611C75.517 0.372328 75.6887 0.257881 75.9176 0.257881H79.2079C79.4654 0.257881 79.6371 0.429552 79.6371 0.687058V19.5708C79.6371 19.8283 79.4654 20 79.2079 20H76.8904C76.6329 20 76.4612 19.8283 76.4612 19.5708V4.86438L71.3683 15.8227C71.2825 16.023 71.1108 16.1374 70.8819 16.1374H68.5643C68.3355 16.1374 68.1638 16.023 68.0779 15.8227L62.9564 4.86438V19.5708C62.9564 19.8283 62.7848 20 62.5273 20H60.2383C59.9808 20 59.8091 19.8283 59.8091 19.5708V0.687058C59.8091 0.429552 59.9808 0.257881 60.2383 0.257881H63.5287Z" fill="#3D3D3D"/>
</svg>
