<svg width="17" height="17" viewBox="0 0 17 17" fill="none" xmlns="http://www.w3.org/2000/svg">
<path d="M8.88265 0.548828C4.45834 0.548828 0.85791 4.14926 0.85791 8.57357C0.85791 12.9979 4.45834 16.5983 8.88265 16.5983C13.307 16.5983 16.9074 12.9979 16.9074 8.57357C16.9074 4.14926 13.307 0.548828 8.88265 0.548828ZM8.88265 1.88628C12.5841 1.88628 15.57 4.87216 15.57 8.57357C15.5716 10.1745 14.9975 11.7226 13.9525 12.9354C12.9076 14.1483 11.4613 14.9449 9.87772 15.1799V10.5236H11.7823L12.0812 8.58894H9.87772V7.53236C9.87772 6.72988 10.1419 6.01635 10.8928 6.01635H12.0999V4.32848C11.8879 4.29972 11.4392 4.23753 10.5912 4.23753C8.82046 4.23753 7.78259 5.17241 7.78259 7.30298V8.58894H5.96232V10.5236H7.78259V15.1632C6.22094 14.9062 4.80156 14.1023 3.77804 12.8951C2.75452 11.688 2.19356 10.1562 2.19536 8.57357C2.19536 4.87216 5.18124 1.88628 8.88265 1.88628Z" fill="white"/>
</svg>
