<svg width="17" height="17" viewBox="0 0 17 17" fill="none" xmlns="http://www.w3.org/2000/svg">
<path d="M12.0404 16.1059H5.0147C2.80662 16.1059 1 14.2993 1 12.0912V5.06548C1 2.8574 2.80662 1.05078 5.0147 1.05078H12.0404C14.2485 1.05078 16.0551 2.8574 16.0551 5.06548V12.0912C16.0551 14.2993 14.2485 16.1059 12.0404 16.1059Z" stroke="white" stroke-width="1.07059" stroke-miterlimit="10" stroke-linecap="round" stroke-linejoin="round"/>
<path d="M8.52751 12.0912C10.4676 12.0912 12.0404 10.5184 12.0404 8.57829C12.0404 6.63819 10.4676 5.06543 8.52751 5.06543C6.58741 5.06543 5.01465 6.63819 5.01465 8.57829C5.01465 10.5184 6.58741 12.0912 8.52751 12.0912Z" stroke="white" stroke-width="1.07059" stroke-miterlimit="10" stroke-linecap="round" stroke-linejoin="round"/>
<path d="M12.5424 4.56325C12.8195 4.56325 13.0442 4.33857 13.0442 4.06141C13.0442 3.78425 12.8195 3.55957 12.5424 3.55957C12.2652 3.55957 12.0405 3.78425 12.0405 4.06141C12.0405 4.33857 12.2652 4.56325 12.5424 4.56325Z" stroke="white" stroke-width="1.07059" stroke-miterlimit="10" stroke-linecap="round" stroke-linejoin="round"/>
</svg>
