<svg width="16" height="16" viewBox="0 0 16 16" fill="none" xmlns="http://www.w3.org/2000/svg">
<path d="M7.77425 15.3334C11.8243 15.3334 15.1076 12.0501 15.1076 8.00008C15.1076 3.95008 11.8243 0.666748 7.77425 0.666748M7.77425 15.3334C3.72425 15.3334 0.440918 12.0501 0.440918 8.00008C0.440918 3.95008 3.72425 0.666748 7.77425 0.666748M7.77425 15.3334C9.77425 15.3334 10.4409 12.0001 10.4409 8.00008C10.4409 4.00008 9.77425 0.666748 7.77425 0.666748M7.77425 15.3334C5.77425 15.3334 5.10758 12.0001 5.10758 8.00008C5.10758 4.00008 5.77425 0.666748 7.77425 0.666748M1.10758 10.6667H14.4409M1.10758 5.33341H14.4409" stroke="white" stroke-width="0.6"/>
</svg>
