<svg width="28" height="22" viewBox="0 0 28 22" fill="none" xmlns="http://www.w3.org/2000/svg">
<path fill-rule="evenodd" clip-rule="evenodd" d="M0 0.888862C0 0.682582 0.0819444 0.484752 0.227806 0.33889C0.373668 0.193028 0.571498 0.111084 0.777778 0.111084H27.2222C27.4285 0.111084 27.6263 0.193028 27.7722 0.33889C27.9181 0.484752 28 0.682582 28 0.888862C28 1.09514 27.9181 1.29297 27.7722 1.43883C27.6263 1.5847 27.4285 1.66664 27.2222 1.66664H0.777778C0.571498 1.66664 0.373668 1.5847 0.227806 1.43883C0.0819444 1.29297 0 1.09514 0 0.888862ZM0 11C0 10.7937 0.0819444 10.5959 0.227806 10.45C0.373668 10.3041 0.571498 10.2222 0.777778 10.2222H27.2222C27.4285 10.2222 27.6263 10.3041 27.7722 10.45C27.9181 10.5959 28 10.7937 28 11C28 11.2063 27.9181 11.4041 27.7722 11.5499C27.6263 11.6958 27.4285 11.7778 27.2222 11.7778H0.777778C0.571498 11.7778 0.373668 11.6958 0.227806 11.5499C0.0819444 11.4041 0 11.2063 0 11ZM0 21.1111C0 20.9048 0.0819444 20.707 0.227806 20.5611C0.373668 20.4153 0.571498 20.3333 0.777778 20.3333H27.2222C27.4285 20.3333 27.6263 20.4153 27.7722 20.5611C27.9181 20.707 28 20.9048 28 21.1111C28 21.3174 27.9181 21.5152 27.7722 21.6611C27.6263 21.8069 27.4285 21.8889 27.2222 21.8889H0.777778C0.571498 21.8889 0.373668 21.8069 0.227806 21.6611C0.0819444 21.5152 0 21.3174 0 21.1111Z" fill="black"/>
</svg>
