<svg width="18" height="16" viewBox="0 0 18 16" fill="none" xmlns="http://www.w3.org/2000/svg">
<path d="M17.2499 15.2484C15.9608 13.0209 13.9372 11.4579 11.5858 10.795C12.729 10.2139 13.6431 9.26468 14.1809 8.10043C14.7186 6.93618 14.8486 5.62475 14.5498 4.3776C14.251 3.13046 13.5409 2.02029 12.534 1.2261C11.527 0.431916 10.282 0 8.99953 0C7.7171 0 6.47204 0.431916 5.46511 1.2261C4.45818 2.02029 3.74807 3.13046 3.44928 4.3776C3.1505 5.62475 3.28045 6.93618 3.81818 8.10043C4.35592 9.26468 5.27009 10.2139 6.41331 10.795C4.06189 11.4571 2.03824 13.0201 0.749208 15.2484C0.713812 15.304 0.690046 15.3663 0.679338 15.4314C0.668629 15.4965 0.671201 15.5631 0.686898 15.6272C0.702595 15.6913 0.731092 15.7515 0.770676 15.8043C0.81026 15.8571 0.860112 15.9013 0.917233 15.9343C0.974355 15.9674 1.03756 15.9885 1.10306 15.9964C1.16856 16.0044 1.23499 15.999 1.29835 15.9806C1.36172 15.9622 1.42071 15.9312 1.47178 15.8895C1.52285 15.8477 1.56494 15.796 1.59552 15.7376C3.16177 13.0315 5.929 11.4163 8.99953 11.4163C12.0701 11.4163 14.8373 13.0315 16.4035 15.7376C16.4341 15.796 16.4762 15.8477 16.5273 15.8895C16.5784 15.9312 16.6374 15.9622 16.7007 15.9806C16.7641 15.999 16.8305 16.0044 16.896 15.9964C16.9615 15.9885 17.0247 15.9674 17.0818 15.9343C17.139 15.9013 17.1888 15.8571 17.2284 15.8043C17.268 15.7515 17.2965 15.6913 17.3122 15.6272C17.3279 15.5631 17.3304 15.4965 17.3197 15.4314C17.309 15.3663 17.2853 15.304 17.2499 15.2484ZM4.27062 5.70899C4.27062 4.7737 4.54796 3.85942 5.06758 3.08175C5.5872 2.30409 6.32576 1.69797 7.18986 1.34005C8.05395 0.982127 9.00478 0.888479 9.9221 1.07094C10.8394 1.25341 11.682 1.7038 12.3434 2.36515C13.0047 3.0265 13.4551 3.86911 13.6376 4.78643C13.82 5.70375 13.7264 6.65458 13.3685 7.51867C13.0106 8.38277 12.4044 9.12132 11.6268 9.64094C10.8491 10.1606 9.93482 10.4379 8.99953 10.4379C7.74581 10.4364 6.54387 9.93769 5.65735 9.05117C4.77084 8.16466 4.27213 6.96272 4.27062 5.70899Z" fill="white"/>
</svg>
