<svg width="14" height="17" viewBox="0 0 14 17" fill="none" xmlns="http://www.w3.org/2000/svg">
<path d="M11.3234 3.66274C10.0727 2.21886 8.0418 1.81791 6.22484 2.0204C5.00372 2.15663 3.83091 2.62059 2.99789 3.54308C2.28253 4.33538 1.86006 5.36268 1.65417 6.41939C1.4458 7.48941 1.39296 8.5664 1.49565 9.65035C1.68095 11.6082 2.36349 13.5866 4.23247 14.5556C5.36303 15.1417 6.71263 15.2672 7.98189 15.1322C9.15703 15.0073 10.1676 14.5834 10.9806 13.7085C11.6318 13.0078 11.9259 12.0861 11.7522 11.1396C11.6171 10.4036 11.1664 9.82683 10.5319 9.44942C10.531 9.44892 10.5301 9.44864 10.5291 9.4486C10.5282 9.44855 10.5272 9.44874 10.5263 9.44916C10.5255 9.44957 10.5247 9.45019 10.5241 9.45096C10.5236 9.45174 10.5232 9.45264 10.523 9.4536C10.3218 10.9574 9.59095 12.3044 8.00883 12.6832C7.28278 12.8569 6.51757 12.835 5.81243 12.5887C4.90898 12.2732 4.19842 11.5687 4.02565 10.6091C3.88369 9.82064 4.08463 9.03391 4.62646 8.44178C5.2189 7.79438 6.10022 7.48182 6.95289 7.40194C7.67754 7.33414 8.42123 7.36402 9.14016 7.47625C9.14093 7.47638 9.14171 7.47633 9.14246 7.4761C9.1432 7.47588 9.14388 7.47548 9.14444 7.47495C9.145 7.47443 9.14542 7.47378 9.14567 7.47306C9.14592 7.47234 9.146 7.47158 9.14588 7.47083C9.10966 7.2153 9.03834 6.97148 8.93194 6.73937C8.67837 6.18625 8.23593 5.86301 7.63358 5.75681C6.86852 5.62182 5.979 5.76316 5.45994 6.39198C5.43754 6.41902 5.38878 6.48296 5.31364 6.58379C5.31034 6.58823 5.30637 6.58885 5.30172 6.58565L4.16807 5.8079C4.16581 5.80635 4.16425 5.80395 4.16373 5.80123C4.16321 5.79851 4.16377 5.79568 4.16529 5.79335C5.02741 4.49421 6.57238 4.06989 8.05063 4.39777C9.62346 4.7467 10.3973 6.0319 10.559 7.55582C10.5647 7.61031 10.5742 7.72126 10.5874 7.88866C10.5879 7.89392 10.5905 7.89758 10.5953 7.89965C11.7225 8.38667 12.6309 9.22448 13.0006 10.4165C13.4695 11.9286 13.0568 13.5371 11.9827 14.6912C11.4682 15.244 10.8704 15.6796 10.1891 15.9979C9.2897 16.4182 8.27091 16.5728 7.28634 16.5953C6.18428 16.6205 5.07106 16.4586 4.05197 16.0316C3.06688 15.619 2.25508 14.9852 1.61655 14.1303C0.44157 12.5568 0.0701882 10.5293 0.0554816 8.60541C0.051147 8.03582 0.0928936 7.43316 0.180721 6.79742C0.378873 5.36314 0.854904 3.95595 1.75727 2.84057C3.14357 1.12701 5.21937 0.499425 7.35523 0.561812C8.35745 0.591071 9.35441 0.780244 10.2744 1.1846C12.1381 2.00399 13.3447 3.6838 13.8576 5.61733C13.8586 5.62136 13.8571 5.62394 13.8531 5.62507L12.5216 5.98004C12.5183 5.9809 12.5147 5.98043 12.5118 5.97871C12.5088 5.977 12.5067 5.9742 12.5058 5.97091C12.2792 5.13124 11.898 4.32594 11.3234 3.66274ZM5.7276 10.9402C6.23335 11.3958 7.04608 11.4563 7.67723 11.3117C8.78828 11.0571 9.10672 9.94634 9.18242 8.95156C9.18292 8.94516 9.18105 8.9388 9.17717 8.93369C9.17328 8.92858 9.16766 8.92508 9.16136 8.92385C8.46644 8.78731 7.76129 8.75062 7.06141 8.81239C6.47222 8.86456 5.73611 9.09754 5.47124 9.67729C5.27308 10.1106 5.37324 10.6208 5.7276 10.9402Z" fill="white"/>
</svg>
